<svg version="1.1" xmlns="http://www.w3.org/2000/svg" viewBox="0 0 2318.176920000841 1952.2327629411952" width="6954.5307600025235" height="5856.698288823585">
  <!-- svg-source:excalidraw -->
  
  <defs>
    <style class="style-fonts">
      @font-face {
        font-family: "Virgil";
        src: url("https://excalidraw.com/Virgil.woff2");
      }
      @font-face {
        font-family: "Cascadia";
        src: url("https://excalidraw.com/Cascadia.woff2");
      }
      @font-face {
        font-family: "Assistant";
        src: url("https://excalidraw.com/Assistant-Regular.woff2");
      }
    </style>
    
  </defs>
  <rect x="0" y="0" width="2318.176920000841" height="1952.2327629411952" fill="#ffffff"></rect><g stroke-linecap="round" transform="translate(310.1045392457114 1136.3779326383333) rotate(0 218.65303207880106 149.6916137440869)"><path d="M-0.72 -1.34 C158.21 -1.37, 313.58 -1.76, 437.18 1.58 M-0.88 -0.1 C101.16 -3.37, 202.17 -3.38, 437.12 -0.09 M437.74 -1.49 C432.14 58.33, 435.32 118.56, 436.62 297.6 M436 1.12 C440.23 81.19, 442.18 162.93, 436.95 298.11 M435.33 301.15 C345.94 295.75, 250.32 295.46, 1.49 300.45 M438.24 299.96 C304.68 295.45, 174.67 294.98, -0.45 300.36 M-0.78 297.72 C-1.35 192.51, -0.92 83.29, 0.58 -2.55 M0.44 298.84 C3.2 203.88, 3.31 104.94, 0.38 1.14" stroke="#1e1e1e" stroke-width="2" fill="none"></path></g><g stroke-linecap="round" transform="translate(629.7143208667891 1255.662236401296) rotate(0 47.01953125 17.5)"><path d="M2.88 -2.12 C27.87 2.29, 49.28 0.53, 94.57 -0.54 M-1.98 -0.87 C26.88 -1.35, 56.09 -2.31, 92.74 0.61 M94.27 -2.29 C93.72 4.17, 92.44 14.81, 94.97 36.2 M92.52 0.94 C94.3 8.63, 94.85 14.11, 93.88 33.88 M96.09 38.36 C60.45 36.07, 27.85 34.33, 3.19 33.51 M92.43 36.46 C70.52 37.5, 48.99 34.12, 1.28 35.46 M2.72 31.47 C-1.77 25.22, -2.55 6.6, -1.73 -2.17 M-1.87 33.69 C0.54 21.28, 1.19 8.33, -1.46 0.02" stroke="#1e1e1e" stroke-width="2" fill="none"></path></g><g transform="translate(642.7338826343672 1260.662236401296) rotate(0 33.999969482421875 12.5)"><text x="33.999969482421875" y="0" font-family="Virgil, Segoe UI Emoji" font-size="20px" fill="#1e1e1e" text-anchor="middle" style="white-space: pre;" direction="ltr" dominant-baseline="text-before-edge">Create</text></g><g stroke-linecap="round" transform="translate(1025.8463014095337 1135.095479028755) rotate(0 218.65303207880095 149.6916137440869)"><path d="M-0.3 -0.57 C164.55 -0.36, 330.77 -1.44, 437.55 1.8 M-0.4 -0.79 C108.07 0.73, 216.48 1.18, 437.26 0.61 M435.39 -2.28 C437.5 63.98, 439.06 127.88, 436.71 297.37 M438.01 1.09 C436.99 110.99, 435.85 218.38, 436.69 299.03 M438.93 301.15 C333.76 298, 225.58 295.22, 0.08 300.6 M436.61 300.35 C271.77 301.28, 103.71 301.4, -0.9 299.48 M1.15 296.94 C2.57 189.57, 4.04 76.43, -1.78 -0.77 M1.27 299.21 C-3.2 192.75, -2.34 84.27, 0.17 -1.19" stroke="#1e1e1e" stroke-width="2" fill="none"></path></g><g transform="translate(1042.649738042082 1395.017705151296) rotate(0 112.25989532470703 12.5)"><text x="112.25989532470703" y="0" font-family="Virgil, Segoe UI Emoji" font-size="20px" fill="#1e1e1e" text-anchor="middle" style="white-space: pre;" direction="ltr" dominant-baseline="text-before-edge">http://retypeme/gameid</text></g><g stroke-linecap="round"><g transform="translate(719.8432271167889 1273.896611401296) rotate(0 151.5233656857729 1.7418112487405324)"><path d="M1.45 0.78 C86.4 -2.55, 169.21 -0.09, 302.06 1.85 M0.79 0.23 C61.78 1.43, 127.48 4.1, 302.8 2.04" stroke="#1971c2" stroke-width="4" fill="none"></path></g><g transform="translate(719.8432271167889 1273.896611401296) rotate(0 151.5233656857729 1.7418112487405324)"><path d="M276.66 13.53 C283.48 5.94, 287.18 5, 301.45 -0.2 M275.75 12.78 C278.73 9.65, 287.99 10.13, 302.46 0.06" stroke="#1971c2" stroke-width="4" fill="none"></path></g><g transform="translate(719.8432271167889 1273.896611401296) rotate(0 151.5233656857729 1.7418112487405324)"><path d="M276.54 -6.99 C283.13 -8.77, 286.86 -3.88, 301.45 -0.2 M275.63 -7.74 C278.37 -6.59, 287.65 -1.82, 302.46 0.06" stroke="#1971c2" stroke-width="4" fill="none"></path></g></g><mask></mask><g transform="translate(429.7981755420818 1711.259892651296) rotate(0 117.25989532470703 12.5)"><text x="117.25989532470703" y="0" font-family="Virgil, Segoe UI Emoji" font-size="20px" fill="#1e1e1e" text-anchor="middle" style="white-space: pre;" direction="ltr" dominant-baseline="text-before-edge">http://retypeme/game/id</text></g><g transform="translate(1111.098956792082 1104.927861401296) rotate(0 117.25989532470703 12.5)"><text x="117.25989532470703" y="0" font-family="Virgil, Segoe UI Emoji" font-size="20px" fill="#1e1e1e" text-anchor="middle" style="white-space: pre;" direction="ltr" dominant-baseline="text-before-edge">http://retypeme/game/id</text></g><g transform="translate(438.08392688485526 1104.279423901296) rotate(0 75.8999252319336 12.5)"><text x="75.8999252319336" y="0" font-family="Virgil, Segoe UI Emoji" font-size="20px" fill="#1e1e1e" text-anchor="middle" style="white-space: pre;" direction="ltr" dominant-baseline="text-before-edge">http://retypeme</text></g><g stroke-linecap="round" transform="translate(1054.2722262879884 1595.4119251601655) rotate(0 218.65303207880095 149.6916137440869)"><path d="M-1.32 1.52 C173.67 0.67, 344.2 1.83, 437.25 0.3 M-0.1 -0.99 C154.99 1.07, 312.39 1.55, 437.65 0 M435.98 1.14 C439.17 99.31, 439.21 202.12, 434.89 298.77 M438.7 -0.92 C438.85 77.63, 437.69 152.18, 438.6 299.38 M437.85 299.61 C296.71 301.62, 157.97 301.01, 1.86 300.29 M438.31 299.44 C315.95 296.51, 196.94 296.82, 0.84 300.13 M1.58 299.95 C-0.16 182.94, -1.57 64.74, 2.5 1.88 M1.22 300.01 C-2.9 218.58, -3.95 135.2, -0.65 -0.9" stroke="#1e1e1e" stroke-width="2" fill="none"></path></g><g transform="translate(1070.368488042082 1854.6269764042522) rotate(0 112.25989532470703 12.5)"><text x="112.25989532470703" y="0" font-family="Virgil, Segoe UI Emoji" font-size="20px" fill="#1e1e1e" text-anchor="middle" style="white-space: pre;" direction="ltr" dominant-baseline="text-before-edge">http://retypeme/gameid</text></g><g transform="translate(804.2354695484295 1240.464482495046) rotate(0 60.349945068359375 12.5)"><text x="60.349945068359375" y="0" font-family="Virgil, Segoe UI Emoji" font-size="20px" fill="#1e1e1e" text-anchor="middle" style="white-space: pre;" direction="ltr" dominant-baseline="text-before-edge">1st user join</text></g><g stroke-linecap="round"><g transform="translate(701.8721196211142 1719.470441666213) rotate(0 151.876953125 1.9453125)"><path d="M0.79 1.89 C77.28 -1.22, 150.97 0.74, 302 2.12 M-0.2 -1.44 C99.78 6.08, 197.47 5.4, 302.47 3.33" stroke="#1971c2" stroke-width="4" fill="none"></path></g><g transform="translate(701.8721196211142 1719.470441666213) rotate(0 151.876953125 1.9453125)"><path d="M275.52 16.59 C284.13 9.8, 288.76 8.52, 300.07 0.9 M274.16 12.01 C285.07 12.71, 293.07 6.58, 300.71 2.57" stroke="#1971c2" stroke-width="4" fill="none"></path></g><g transform="translate(701.8721196211142 1719.470441666213) rotate(0 151.876953125 1.9453125)"><path d="M275.23 -3.93 C283.73 -5.63, 288.43 -1.81, 300.07 0.9 M273.87 -8.51 C285.21 -1.15, 293.31 -0.62, 300.71 2.57" stroke="#1971c2" stroke-width="4" fill="none"></path></g></g><mask></mask><g transform="translate(782.5743596113485 1686.038312759963) rotate(0 64.03994750976562 12.5)"><text x="64.03994750976562" y="0" font-family="Virgil, Segoe UI Emoji" font-size="20px" fill="#1e1e1e" text-anchor="middle" style="white-space: pre;" direction="ltr" dominant-baseline="text-before-edge">2nd user join</text></g><g stroke-linecap="round" transform="translate(1772.1027645255485 1136.1744868449418) rotate(0 218.65303207880106 149.6916137440869)"><path d="M1.65 -0.62 C115.22 2.02, 227.65 0.79, 439.29 0.02 M-0.17 -0.68 C117.14 0.32, 235.73 1.99, 437.91 -0.1 M439.26 1.55 C435.55 114.05, 434.13 233.51, 439.02 301.17 M438.48 1.42 C438.89 90.03, 437.2 179.35, 438.22 299.89 M438.29 299.01 C300.72 301.65, 163.16 302.94, -0.27 299.14 M436.46 299.51 C346.99 302.59, 257.31 303.12, -0.69 299.47 M2.87 298.72 C-0.51 234.72, -2.78 178.04, 2.19 -2.4 M-0.78 299.42 C2.5 231.59, 4.45 164.67, -0.39 1.13" stroke="#1e1e1e" stroke-width="2" fill="none"></path></g><g stroke-linecap="round" transform="translate(1794.8551689445744 1241.285648132694) rotate(0 179.029296875 49.919921875)"><path d="M0.65 0.01 C88.88 -0.14, 184.71 1.43, 357.28 1.06 M-0.85 -1.25 C96.89 3.94, 194.3 2.95, 359.15 -0.93 M360.03 -1.8 C359.43 29.65, 361.72 54.22, 357.97 101.02 M358.44 1.24 C357.74 27.84, 360.9 53.35, 358.36 98.73 M359.43 97.3 C217.4 98.09, 73.38 98.7, -2.4 100.1 M357.52 100.35 C227.65 101.61, 96.94 100.54, -1.18 100.39 M1.9 96.37 C-3.14 68.95, 1.03 26.91, -2.93 -3.11 M-1.25 99.94 C2.47 73.27, 0.53 45.47, 0.98 -1.3" stroke="#1e1e1e" stroke-width="2" fill="none"></path></g><g stroke-linecap="round"><g transform="translate(1816.95501535435 1270.2411005890285) rotate(0 154.24609375 -0.330078125)"><path d="M-2.51 -1.74 C85.92 -0.16, 165.3 0.83, 307.64 -1.16 M0.14 0.97 C72.54 4.06, 144.57 3.01, 307.91 0.3" stroke="#1e1e1e" stroke-width="2" fill="none"></path></g></g><mask></mask><g stroke-linecap="round"><g transform="translate(1815.795786617577 1292.9437377291083) rotate(0 154.24609375 -0.330078125)"><path d="M2.83 0.03 C91.75 3.68, 184.39 1.79, 306.55 -2.59 M0.87 -0.15 C63.46 -4.18, 123.88 -2.3, 309.25 0.05" stroke="#1e1e1e" stroke-width="2" fill="none"></path></g></g><mask></mask><g stroke-linecap="round"><g transform="translate(1818.819224117577 1317.4593627291083) rotate(0 154.24609375 -0.330078125)"><path d="M-0.88 1.2 C73.05 -0.71, 145.87 -2.3, 305.67 -0.39 M1.23 -1.05 C112.78 1.18, 227.5 0.69, 307.84 -0.65" stroke="#1e1e1e" stroke-width="2" fill="none"></path></g></g><mask></mask><g stroke-linecap="round" transform="translate(1801.18939035435 1156.7371943390285) rotate(0 172.474609375 9.7265625)"><path d="M-0.39 -0.23 C102.99 -1.83, 206.46 -0.82, 345.84 0.79 M-0.27 0.44 C100.25 1.98, 199.5 1.66, 345.57 0.38 M344.24 1.55 C346.83 7.39, 346.15 12.17, 346.41 20.67 M345.89 0.48 C344.8 7.02, 344.01 13.58, 344.6 19.32 M345.78 18.34 C245.79 19.12, 146.81 19.39, 1.23 18.55 M345.27 20.1 C238.21 20.75, 131.2 20.24, 0.65 19.94 M-0.39 18.42 C0.19 13.99, 0.24 12.32, 1.35 -0.52 M0.94 18.56 C0.23 12.55, -0.91 5.76, 0.61 -0.26" stroke="#1e1e1e" stroke-width="2" fill="none"></path></g><g stroke-linecap="round" transform="translate(1802.55853097935 1184.3934443390285) rotate(0 172.474609375 9.7265625)"><path d="M-0.89 -0.88 C116.54 0.52, 236.56 1.19, 344.81 1.12 M0.35 0.33 C78.06 -1.5, 157.34 -1.13, 345.35 -0.02 M346.83 0.38 C346.08 4.55, 346.34 14.03, 345.61 19.74 M344.77 0.52 C344.17 5.34, 344.79 9.39, 344.83 18.53 M345.12 18.89 C238.46 17.25, 132.14 16.64, 0.12 18.24 M344.8 19.77 C225.91 21.48, 108.66 22.16, -0.54 18.97 M0.05 18.24 C0.14 16.5, 1.39 10.29, 1.49 0.96 M0.33 19.87 C-1.01 15.84, 0.42 10.05, 0.74 0.32" stroke="#1e1e1e" stroke-width="2" fill="none"></path></g><g stroke-linecap="round" transform="translate(1806.39837472935 1158.6200068390285) rotate(0 82.365234375 8.083984375)"><path d="M-0.77 -0.36 L165.81 1.93 L164.67 16.23 L0.79 16.74" stroke="none" stroke-width="0" fill="#a5d8ff"></path><path d="M-1.97 0.19 C47.92 2.31, 92.93 2.81, 163.27 -0.81 M-0.45 0.01 C61.32 -0.23, 121.36 -0.84, 165.03 -0.36 M165.73 -1.55 C166.1 7.15, 165.44 12.52, 163.84 17.74 M163.92 0.48 C164.41 5.53, 164.6 10.52, 164.81 16.68 M165.53 15.72 C131.05 14.1, 93.83 13.61, 0.87 17.15 M163.86 15.87 C100.19 17.7, 32.87 16.22, -0.78 15.97 M0.08 17.3 C1.12 11.74, 1.24 8.99, -1.05 1.57 M-0.68 16.97 C0.45 12.58, 0.56 9.7, -0.29 -0.48" stroke="transparent" stroke-width="2" fill="none"></path></g><g stroke-linecap="round" transform="translate(1802.05853097935 1185.3953974640285) rotate(0 106.48828125 8.748046875)"><path d="M1.08 1.93 L212.92 0.06 L213.77 18.07 L-1.09 18.26" stroke="none" stroke-width="0" fill="#a5d8ff"></path><path d="M1.19 1.06 C49.43 1.32, 97.95 -0.89, 214.15 0.93 M0.83 0.51 C74.95 -0.04, 149.09 -0.34, 213.68 0.85 M214.29 1.09 C213.68 5.85, 212.12 12.87, 213.83 17.18 M212.66 -0.12 C212.7 5.36, 212.89 12.93, 212.24 17.61 M214.61 16.3 C158.33 15.46, 104.13 17.94, 1.72 17.1 M213.84 18.15 C138.25 16.3, 64.28 16.77, -0.47 17.52 M1.21 17.03 C1.33 14.2, -1.14 10.89, -1.61 0.59 M0.55 17.26 C0.81 11.78, -0.17 4.97, -0.34 -0.16" stroke="transparent" stroke-width="2" fill="none"></path></g><g transform="translate(1856.648245029643 1105.2996943390285) rotate(0 117.25989532470703 12.5)"><text x="117.25989532470703" y="0" font-family="Virgil, Segoe UI Emoji" font-size="20px" fill="#1e1e1e" text-anchor="middle" style="white-space: pre;" direction="ltr" dominant-baseline="text-before-edge">http://retypeme/game/id</text></g><g stroke-linecap="round" transform="translate(1071.456508366789 1315.597539135671) rotate(0 47.01953125 17.5)"><path d="M-1.65 -0.86 C33.15 0.28, 64.91 -1.99, 95.82 3.53 M0.81 -1.68 C32.61 2.63, 66.63 1.69, 92.46 0.3 M93.14 -0.24 C97.77 8.76, 97.78 22.36, 92.12 35.32 M94.46 -0.35 C92.33 7.18, 94.72 15.84, 95.52 35.77 M91.23 35.39 C64.97 36.74, 40.37 31.97, 0.88 36.82 M92.33 36.68 C62.73 33.02, 26.57 33.73, -1.1 34.92 M2.89 38.52 C-1.11 22.94, -0.98 11.81, 0.58 3.83 M-1.01 36.85 C-0.42 22.73, 0.06 12.96, -1.42 -0.38" stroke="#1e1e1e" stroke-width="2" fill="none"></path></g><g transform="translate(1091.6560628101483 1320.597539135671) rotate(0 26.819976806640625 12.5)"><text x="26.819976806640625" y="0" font-family="Virgil, Segoe UI Emoji" font-size="20px" fill="#1e1e1e" text-anchor="middle" style="white-space: pre;" direction="ltr" dominant-baseline="text-before-edge">ready</text></g><g stroke-linecap="round" transform="translate(1086.077602116789 1781.167851635671) rotate(0 47.01953125 17.5)"><path d="M2.08 -3.39 C21.63 4.19, 43.26 3.08, 94.18 -3.01 M0.9 0.99 C33.6 -0.66, 68.47 -2.22, 92.9 1.01 M96.08 0.84 C95.18 12.2, 91.76 20.98, 97.58 34.15 M93.83 -0.5 C93.4 9.7, 93.19 23.73, 95.24 34.6 M92.6 31.59 C72.25 31.76, 57.12 33.7, 0.61 33.96 M94.65 33.51 C72.53 35.48, 50.45 35.67, 1.01 33.79 M2.28 32.83 C-1.33 22, -2.67 7.21, -3.7 1.62 M0.49 35.46 C-0.87 27.2, 1.26 18.82, -0.65 1.78" stroke="#1e1e1e" stroke-width="2" fill="none"></path></g><g transform="translate(1106.2771565601483 1786.167851635671) rotate(0 26.819976806640625 12.5)"><text x="26.819976806640625" y="0" font-family="Virgil, Segoe UI Emoji" font-size="20px" fill="#1e1e1e" text-anchor="middle" style="white-space: pre;" direction="ltr" dominant-baseline="text-before-edge">ready</text></g><g stroke-linecap="round"><g transform="translate(1508.360351213652 1505.0549233630204) rotate(0 67 -0.107421875)"><path d="M-2.6 1.53 C36.28 3.39, 63.17 1.11, 131.92 -1.73 M1.64 1.67 C34.58 -3.33, 73.83 -2.86, 135.93 0.56" stroke="#1971c2" stroke-width="4" fill="none"></path></g><g transform="translate(1508.360351213652 1505.0549233630204) rotate(0 67 -0.107421875)"><path d="M104.72 11.09 C117.43 9.46, 118.09 4.99, 133.85 -0.96 M108.95 11.24 C113.06 5.9, 123.56 3.97, 137.86 1.33" stroke="#1971c2" stroke-width="4" fill="none"></path></g><g transform="translate(1508.360351213652 1505.0549233630204) rotate(0 67 -0.107421875)"><path d="M105.62 -9.41 C117.96 -5.95, 118.4 -5.31, 133.85 -0.96 M109.86 -9.27 C113.87 -8.99, 124.11 -5.33, 137.86 1.33" stroke="#1971c2" stroke-width="4" fill="none"></path></g></g><mask></mask><g transform="translate(1510.0086895442873 1461.6739806326036) rotate(0 58.93995666503906 12.5)"><text x="58.93995666503906" y="0" font-family="Virgil, Segoe UI Emoji" font-size="20px" fill="#1e1e1e" text-anchor="middle" style="white-space: pre;" direction="ltr" dominant-baseline="text-before-edge">timer 3,2,1...</text></g><g transform="translate(762.0453602954998 1313.800664135671) rotate(0 116.62989807128906 12.5)"><text x="116.62989807128906" y="0" font-family="Virgil, Segoe UI Emoji" font-size="20px" fill="#f08c00" text-anchor="middle" style="white-space: pre;" direction="ltr" dominant-baseline="text-before-edge">backend: create session</text></g><g transform="translate(1195.2249867603437 1322.499882885671) rotate(0 45.62995910644531 12.5)"><text x="45.62995910644531" y="0" font-family="Virgil, Segoe UI Emoji" font-size="20px" fill="#f08c00" text-anchor="middle" style="white-space: pre;" direction="ltr" dominant-baseline="text-before-edge">1st joined</text></g><g transform="translate(1197.2342030689374 1783.171757885671) rotate(0 49.31996154785156 12.5)"><text x="49.31996154785156" y="0" font-family="Virgil, Segoe UI Emoji" font-size="20px" fill="#f08c00" text-anchor="middle" style="white-space: pre;" direction="ltr" dominant-baseline="text-before-edge">2nd joined</text></g><g stroke-linecap="round"><g transform="translate(1478.8474493165027 1507.9248065578763) rotate(0 -72.6328125 -0.212890625)"><path d="M1.05 -2.89 C-45.7 -2.07, -99.8 -3.58, -141.44 -3.5 M-0.61 1.48 C-53.6 -1.53, -109.72 -2, -147.04 1.14" stroke="#f08c00" stroke-width="2" fill="none"></path></g><g transform="translate(1478.8474493165027 1507.9248065578763) rotate(0 -72.6328125 -0.212890625)"><path d="M-118.34 -13.39 C-124.88 -8.32, -138.9 -5.72, -143.21 -1.93 M-119.99 -9.01 C-129.06 -7.25, -141.12 -3.2, -148.81 2.72" stroke="#f08c00" stroke-width="2" fill="none"></path></g><g transform="translate(1478.8474493165027 1507.9248065578763) rotate(0 -72.6328125 -0.212890625)"><path d="M-117.32 7.11 C-124.44 5.19, -138.81 0.8, -143.21 -1.93 M-118.98 11.48 C-128.19 5.56, -140.63 1.93, -148.81 2.72" stroke="#f08c00" stroke-width="2" fill="none"></path></g></g><mask></mask><g transform="translate(1349.012190832616 1461.9209003078763) rotate(0 56.63994598388672 12.5)"><text x="56.63994598388672" y="0" font-family="Virgil, Segoe UI Emoji" font-size="20px" fill="#f08c00" text-anchor="middle" style="white-space: pre;" direction="ltr" dominant-baseline="text-before-edge">start timer</text></g><g stroke-linecap="round"><g transform="translate(1191.2461772164584 1359.976104144495) rotate(0 54.2265625 -0.78515625)"><path d="M3.38 0.22 C35.3 -3.24, 67.59 -1.5, 109.1 0.26 M0.4 0.87 C23.68 -2.92, 49.23 -0.36, 108.45 -2.39" stroke="#f08c00" stroke-width="2" fill="none"></path></g><g transform="translate(1191.2461772164584 1359.976104144495) rotate(0 54.2265625 -0.78515625)"><path d="M83.84 8.64 C90.75 2.24, 98.01 1.11, 109.09 -0.56 M80.87 9.3 C85.09 4.27, 91.72 4.65, 108.44 -3.21" stroke="#f08c00" stroke-width="2" fill="none"></path></g><g transform="translate(1191.2461772164584 1359.976104144495) rotate(0 54.2265625 -0.78515625)"><path d="M83.44 -11.88 C90.45 -11.89, 97.84 -6.64, 109.09 -0.56 M80.46 -11.22 C85.06 -11.43, 91.79 -6.22, 108.44 -3.21" stroke="#f08c00" stroke-width="2" fill="none"></path></g></g><mask></mask><g stroke-linecap="round"><g transform="translate(806.1017117494379 1354.1685394752476) rotate(0 58.429201777671324 3.4174830276713237)"><path d="M1.97 3.48 C29.02 4.14, 61.9 4.11, 115.77 4.14 M-1.35 0.48 C33.57 3.02, 68.17 4.64, 118.06 6.69" stroke="#f08c00" stroke-width="2" fill="none"></path></g><g transform="translate(806.1017117494379 1354.1685394752476) rotate(0 58.429201777671324 3.4174830276713237)"><path d="M91.43 19.22 C94.1 14.22, 102.79 9.84, 116.97 4 M88.11 16.22 C97.43 13.01, 106.27 9.99, 119.27 6.55" stroke="#f08c00" stroke-width="2" fill="none"></path></g><g transform="translate(806.1017117494379 1354.1685394752476) rotate(0 58.429201777671324 3.4174830276713237)"><path d="M92.31 -1.28 C94.98 -0.68, 103.44 0.56, 116.97 4 M88.99 -4.29 C97.86 -1.52, 106.44 1.45, 119.27 6.55" stroke="#f08c00" stroke-width="2" fill="none"></path></g></g><mask></mask><g stroke-linecap="round"><g transform="translate(1202.8240226622925 1821.6738022914592) rotate(0 54.2265625 -0.78515625)"><path d="M3.25 -0.91 C20.08 -2.47, 43.61 2.74, 104.81 -3.92 M-1.79 1.22 C28.5 -1.09, 56.85 0.93, 109.66 -1.17" stroke="#f08c00" stroke-width="2" fill="none"></path></g><g transform="translate(1202.8240226622925 1821.6738022914592) rotate(0 54.2265625 -0.78515625)"><path d="M84.97 8.86 C84.41 4.92, 90.63 8.12, 106.01 -3.51 M79.93 10.99 C89.38 5.72, 96.93 5.32, 110.86 -0.77" stroke="#f08c00" stroke-width="2" fill="none"></path></g><g transform="translate(1202.8240226622925 1821.6738022914592) rotate(0 54.2265625 -0.78515625)"><path d="M84.48 -11.65 C84.22 -11.18, 90.55 -3.57, 106.01 -3.51 M79.43 -9.53 C89.14 -9.49, 96.83 -4.6, 110.86 -0.77" stroke="#f08c00" stroke-width="2" fill="none"></path></g></g><mask></mask><g stroke-linecap="round"><g transform="translate(1705.144240685314 165.12143254695138) rotate(0 232.97817430120995 -1.6759714315035126)"><path d="M-0.91 -0.87 C109.29 -0.42, 221.56 -1.78, 465.57 -2.41 M0.1 0.22 C173.89 1.46, 348.62 0.27, 466.2 -3.9" stroke="#1e1e1e" stroke-width="2" fill="none"></path></g><g transform="translate(1705.144240685314 165.12143254695138) rotate(0 232.97817430120995 -1.6759714315035126)"><path d="M436.28 5.15 C442.52 2.54, 453.41 -1.29, 465.35 -1.84 M438.49 7.55 C447.23 5.03, 458.02 1.07, 466.74 -5.11" stroke="#1e1e1e" stroke-width="2" fill="none"></path></g><g transform="translate(1705.144240685314 165.12143254695138) rotate(0 232.97817430120995 -1.6759714315035126)"><path d="M435.77 -15.36 C442.46 -13.11, 453.48 -12.09, 465.35 -1.84 M437.98 -12.97 C446.93 -7.79, 457.91 -4.07, 466.74 -5.11" stroke="#1e1e1e" stroke-width="2" fill="none"></path></g></g><mask></mask><g stroke-linecap="round" transform="translate(1632.0688767087427 46.07605196538316) rotate(0 19.369327827055145 334.69064601398554)"><path d="M2.6 0.46 L40.21 2.61 L42.06 671.04 L0.88 670.79" stroke="none" stroke-width="0" fill="#a5d8ff"></path><path d="M-3.94 -3.55 C6.25 4.08, 17.75 -2.64, 35.36 0.85 M1.39 -1.04 C10.87 -2.02, 18.61 0.47, 37.39 -0.72 M38.12 1.26 C41.06 263.24, 41.89 524.1, 38.48 668.19 M38.62 0.02 C40 193.29, 39.33 386.65, 38.02 669.94 M42.13 668.76 C23.3 672.83, 14.09 672.39, 2.62 670.13 M37.82 669.95 C24.94 669.57, 8.54 667.5, -1.14 668.98 M-0.16 669.9 C3.16 464.24, 2 257, -0.56 -1.47 M0.72 669.05 C3.07 429.91, 2.66 190.04, 0.52 0.75" stroke="#1e1e1e" stroke-width="2" fill="none"></path></g><g transform="translate(1640.751587807501 20.381303168014256) rotate(0 12.589996337890625 12.5)"><text x="12.589996337890625" y="0" font-family="Virgil, Segoe UI Emoji" font-size="20px" fill="#1e1e1e" text-anchor="middle" style="white-space: pre;" direction="ltr" dominant-baseline="text-before-edge">UI</text></g><g stroke-linecap="round" transform="translate(2187.100589287734 46.07605196538316) rotate(0 19.928332730976308 346.9113014135603)"><path d="M-3.39 3.64 L36.13 -2.55 L36.5 691.85 L-0.93 691.72" stroke="none" stroke-width="0" fill="#a5d8ff"></path><path d="M3.74 2.6 C13.18 0.95, 28.05 2.81, 41.52 0.88 M1.84 0.64 C15.09 -0.47, 27.82 -1.32, 38.09 -0.59 M40.27 -0.51 C36.02 174.49, 34.5 350.63, 38.67 692.7 M39.21 -0.64 C36.94 269.02, 36.76 540.01, 39.3 693.57 M43.81 691.36 C30.49 696.2, 22.65 692.7, -0.19 691.17 M40.83 695.08 C26.48 693.24, 13.6 692.07, -1.97 693.54 M-1.07 695.03 C2.35 511.65, 1.11 330.74, 0.37 -0.51 M0.07 694.07 C1.66 544.27, 1.86 396.63, -0.78 -0.57" stroke="#1e1e1e" stroke-width="2" fill="none"></path></g><g transform="translate(2192.100342606493 10) rotate(0 14.009994506835938 12.5)"><text x="14.009994506835938" y="0" font-family="Virgil, Segoe UI Emoji" font-size="20px" fill="#1e1e1e" text-anchor="middle" style="white-space: pre;" direction="ltr" dominant-baseline="text-before-edge">BE</text></g><g transform="translate(1703.562995572955 78.73798178426159) rotate(0 40.58995056152344 12.5)"><text x="40.58995056152344" y="0" font-family="Virgil, Segoe UI Emoji" font-size="20px" fill="#1e1e1e" text-anchor="middle" style="white-space: pre;" direction="ltr" dominant-baseline="text-before-edge">keypress</text></g><g transform="translate(1718.8248687908563 114.45280522731946) rotate(0 35.48997497558594 12.5)"><text x="35.48997497558594" y="0" font-family="Virgil, Segoe UI Emoji" font-size="20px" fill="#2f9e44" text-anchor="middle" style="white-space: pre;" direction="ltr" dominant-baseline="text-before-edge">V check</text></g><g stroke-linecap="round"><g transform="translate(2176.1974421699683 606.8810227833396) rotate(0 -248.66600741307275 0.9757215976933367)"><path d="M-1.3 -0.9 C-131.65 -3.95, -263.84 -4.4, -496.64 3.29 M0.06 0.05 C-117.61 1.12, -236.6 0.61, -497.16 1.37" stroke="#1e1e1e" stroke-width="2" fill="none"></path></g><g transform="translate(2176.1974421699683 606.8810227833396) rotate(0 -248.66600741307275 0.9757215976933367)"><path d="M-472.2 -11.18 C-473.85 -7.97, -480.18 -7.62, -495.45 4.69 M-468.84 -8.82 C-473.99 -5.4, -482.43 -5.36, -496.75 -0.06" stroke="#1e1e1e" stroke-width="2" fill="none"></path></g><g transform="translate(2176.1974421699683 606.8810227833396) rotate(0 -248.66600741307275 0.9757215976933367)"><path d="M-472.16 9.34 C-474.21 7.07, -480.55 1.95, -495.45 4.69 M-468.8 11.7 C-474.05 10.24, -482.5 5.4, -496.75 -0.06" stroke="#1e1e1e" stroke-width="2" fill="none"></path></g></g><mask></mask><g transform="translate(1754.2546502536588 570.4201757528854) rotate(0 43.87995147705078 12.5)"><text x="43.87995147705078" y="0" font-family="Virgil, Segoe UI Emoji" font-size="20px" fill="#1e1e1e" text-anchor="middle" style="white-space: pre;" direction="ltr" dominant-baseline="text-before-edge">statistic</text></g><g stroke-linecap="round" transform="translate(1784.1784762879875 1597.1831653945405) rotate(0 218.65303207880106 149.6916137440869)"><path d="M-1.67 -1.36 C172.23 1.66, 345.2 0.83, 436.16 -1.62 M-0.92 0.34 C115.47 2.93, 229.46 4.11, 437.68 -0.24 M439.48 0.63 C439.72 121.74, 443.08 240.33, 435.91 299.53 M436.32 0.35 C433.86 111.4, 435.11 224.25, 436.75 299.36 M435.57 300.53 C275.88 297.52, 114 299.42, -1.75 301.04 M438.09 299.37 C303.8 301.77, 168.32 301.61, 0.88 300.27 M0.99 300.55 C-0.67 219.35, -2 137.63, -0.79 2.58 M-0.26 298.88 C1.91 222.6, 1.59 146.08, 0.33 -1.17" stroke="#1e1e1e" stroke-width="2" fill="none"></path></g><g stroke-linecap="round" transform="translate(1806.9308807070133 1702.2943266822926) rotate(0 179.029296875 49.919921875)"><path d="M-0.46 0.01 C94.08 2.04, 186.69 1.03, 357.12 -1.73 M0.59 -0.48 C79.89 -0.54, 161.62 -1.85, 359.31 1.27 M355.38 3.37 C361.43 40.27, 357.63 75.87, 361.1 97.86 M356.33 -1.56 C356.69 25.51, 355.97 53.3, 359.46 99.19 M358.61 97.59 C251.79 102.58, 142.3 104.52, 0.18 99.93 M359.03 100.78 C236.72 100.52, 117.59 100.92, -0.44 100.83 M3.74 99.07 C1.25 61.92, -1.75 35.18, -1.78 -1.1 M0.96 99.41 C0.86 77.23, 0.79 54.05, 0.32 1.28" stroke="#1e1e1e" stroke-width="2" fill="none"></path></g><g stroke-linecap="round"><g transform="translate(1829.030727116789 1731.2497791386272) rotate(0 154.24609375 -0.330078125)"><path d="M0.02 -1.17 C70.11 -2.49, 142.42 -2.29, 306.34 -3.28 M-0.77 1.14 C103.57 1.11, 207.49 2.66, 309.63 0.4" stroke="#1e1e1e" stroke-width="2" fill="none"></path></g></g><mask></mask><g stroke-linecap="round"><g transform="translate(1827.871498380016 1753.952416278707) rotate(0 154.24609375 -0.330078125)"><path d="M-1.64 -2.31 C91.66 -0.35, 183.3 -1.22, 309.47 0.68 M0.54 -0.34 C82.4 -2.25, 163.1 -2.79, 308.8 -1.62" stroke="#1e1e1e" stroke-width="2" fill="none"></path></g></g><mask></mask><g stroke-linecap="round"><g transform="translate(1830.894935880016 1778.468041278707) rotate(0 154.24609375 -0.330078125)"><path d="M-1.06 -1.95 C77.88 0.77, 161.04 4.55, 307.41 -2.21 M1.42 1.43 C118.08 1.85, 234.21 -0.42, 309.7 0.02" stroke="#1e1e1e" stroke-width="2" fill="none"></path></g></g><mask></mask><g stroke-linecap="round" transform="translate(1813.265102116789 1617.7458728886272) rotate(0 172.474609375 9.7265625)"><path d="M-0.99 -1.2 C76.24 2.15, 151.09 0.83, 345.99 0.49 M0.52 0.49 C95.52 -2.7, 191.31 -1.95, 345.35 -0.31 M344.31 -1.3 C345.56 4.25, 343.58 11.84, 343.83 18.72 M344.93 -0.84 C345.64 6.02, 344.23 11.82, 345.01 18.61 M345.44 20.48 C213.18 20.54, 82.41 18.97, 0.75 20.6 M345.22 19.68 C211.25 21.83, 76.9 21.53, -0.63 19.28 M-1.53 19.12 C-0.58 12.84, -0.34 4.87, -0.5 0.44 M-0.23 19.07 C0.86 15.18, 0.76 11.32, 0.28 -0.56" stroke="#1e1e1e" stroke-width="2" fill="none"></path></g><g stroke-linecap="round" transform="translate(1814.634242741789 1645.4021228886272) rotate(0 172.474609375 9.7265625)"><path d="M0.45 0.61 C79.56 1.36, 161.15 2.56, 344.64 1.3 M0.14 -0.44 C138.42 -1.37, 276.13 -1.99, 344.98 0.5 M345.42 -1.68 C343.37 4.84, 343.76 9.01, 344.92 20.82 M345.5 0.21 C344.09 5.4, 345 9.56, 345.75 19.52 M344.94 20.45 C241.16 20.65, 136.18 22.37, 1.16 19 M345.21 20.07 C214.57 20.54, 83.81 20.05, 0.58 19.16 M-0.67 20.39 C-0.27 14.65, -0.35 9.29, -1.55 0.31 M0.89 19.47 C0.84 12.82, 0.32 4.73, 0.92 -0.38" stroke="#1e1e1e" stroke-width="2" fill="none"></path></g><g stroke-linecap="round" transform="translate(1818.474086491789 1619.6286853886272) rotate(0 82.365234375 8.083984375)"><path d="M1.33 0.54 L164.62 -0.53 L165.37 16.15 L1.44 16.21" stroke="none" stroke-width="0" fill="#a5d8ff"></path><path d="M-0.75 -1.08 C36 -0.02, 68.37 1.2, 166.72 1.58 M0.84 0.47 C62.2 0.63, 123.23 1.86, 164.24 -0.33 M163.47 -0.03 C163.84 3.16, 164.75 8.67, 164.2 16.14 M164.02 0.16 C164.87 2.76, 165.48 6.97, 164.76 16.47 M166.2 15.3 C103.63 19.17, 42.02 16.73, 1.55 17 M164.54 16.65 C108.77 17.44, 55.62 17.26, -0.28 15.38 M-0.35 16.58 C-0.36 11.96, -1.23 7.28, 1.03 -0.37 M0.66 16.54 C0.08 11.49, 0.62 7.44, -0.45 -0.61" stroke="transparent" stroke-width="2" fill="none"></path></g><g stroke-linecap="round" transform="translate(1814.134242741789 1646.4040760136272) rotate(0 106.48828125 8.748046875)"><path d="M-0.11 -0.53 L213.62 -0.02 L214.42 17.53 L-1.62 16.88" stroke="none" stroke-width="0" fill="#a5d8ff"></path><path d="M1.39 0.66 C73.37 2.74, 149.31 2.39, 214.27 0.38 M0.54 -0.42 C49.67 -0.22, 98.81 -1.18, 212.39 0.21 M211.97 -0.66 C212.82 4.96, 212.27 7.44, 211.47 18.49 M213.03 -0.76 C213.54 5.69, 212.85 11.58, 213.66 17.49 M213.98 19.03 C134.45 16.08, 54.19 17.41, 0.59 18.19 M212.13 17.26 C129.95 18.01, 45.13 17.71, -0.15 17.19 M-0.45 17.89 C-1.35 11.69, 1.16 4.91, -0.7 1.59 M0.25 16.99 C0.69 11.88, -0.63 6.27, 0.58 0.24" stroke="transparent" stroke-width="2" fill="none"></path></g><g transform="translate(1868.7239567920824 1566.3083728886272) rotate(0 117.25989532470703 12.5)"><text x="117.25989532470703" y="0" font-family="Virgil, Segoe UI Emoji" font-size="20px" fill="#1e1e1e" text-anchor="middle" style="white-space: pre;" direction="ltr" dominant-baseline="text-before-edge">http://retypeme/game/id</text></g><g stroke-linecap="round" transform="translate(10 819.5084559094357) rotate(0 479.649780060194 561.3621535158798)"><path d="M-1.56 -0.23 C266.31 7.55, 532.44 6.89, 959.3 0.67 M958.61 -0.92 C963.05 371.98, 962.18 745.46, 960.25 1123.55 M960.69 1123.19 C660.4 1125.21, 361.99 1125.41, -1.07 1121.44 M1.58 1121.49 C-7.86 783.98, -7.73 445.02, 1.07 0.93" stroke="#e03131" stroke-width="2.5" fill="none" stroke-dasharray="1.5 8"></path></g><g transform="translate(197.69139010258925 779.5833827715578) rotate(0 206.0299072265625 12.5)"><text x="206.0299072265625" y="0" font-family="Virgil, Segoe UI Emoji" font-size="20px" fill="#1e1e1e" text-anchor="middle" style="white-space: pre;" direction="ltr" dominant-baseline="text-before-edge">подготовка (сессии нет, статистики нет)</text></g><g stroke-linecap="round" transform="translate(984.73954496664 830.8838689542854) rotate(0 265.89775429882354 551.4617052175192)"><path d="M1.15 -0.42 C133.18 -3.86, 270.18 -3.15, 533.19 0.71 M531.66 -0.25 C533.22 262.01, 532.56 524.14, 533.36 1103.85 M530.67 1103.04 C325.6 1106.99, 117.82 1105.06, -0.12 1102.19 M1.18 1103.51 C3.81 669.57, 3.27 238.73, -1.27 -1.16" stroke="#e03131" stroke-width="2.5" fill="none" stroke-dasharray="1.5 8"></path></g><g transform="translate(1185.4718902928626 782.1024301901589) rotate(0 46.559974670410156 12.5)"><text x="46.559974670410156" y="0" font-family="Virgil, Segoe UI Emoji" font-size="20px" fill="#1e1e1e" text-anchor="middle" style="white-space: pre;" direction="ltr" dominant-baseline="text-before-edge">ожидание</text></g><g stroke-linecap="round" transform="translate(1535.504177803969 840.3499098273105) rotate(0 386.3363710984362 543.5716540736221)"><path d="M0.78 -1.15 C156.52 -0.1, 313.82 -0.45, 773.43 -0.73 M773.4 1.59 C772.5 433.87, 771.77 865.73, 771.26 1086.18 M774.13 1086.9 C610.12 1086.76, 444.86 1086.76, 0.43 1086.04 M0.8 1087.21 C-4.79 667.52, -2.9 247.72, 0.11 0.56" stroke="#e03131" stroke-width="2.5" fill="none" stroke-dasharray="1.5 8"></path></g><g transform="translate(1894.7675795676041 792.0904334734714) rotate(0 22.17999267578125 12.5)"><text x="22.17999267578125" y="0" font-family="Virgil, Segoe UI Emoji" font-size="20px" fill="#1e1e1e" text-anchor="middle" style="white-space: pre;" direction="ltr" dominant-baseline="text-before-edge">игра</text></g><g stroke-linecap="round"><g transform="translate(938.2177429500294 1392.3891620505037) rotate(0 -74.48936787694947 4.6466203164134185)"><path d="M1.35 -0.55 C-47.74 5.82, -89.07 4.45, -150.04 5.42 M-1.41 2 C-50.7 3.99, -105.38 8.71, -150.16 7.65" stroke="#f08c00" stroke-width="2" fill="none"></path></g><g transform="translate(938.2177429500294 1392.3891620505037) rotate(0 -74.48936787694947 4.6466203164134185)"><path d="M-120.71 -3.41 C-132.79 3.42, -137.09 2.43, -151.22 3.77 M-123.48 -0.86 C-129.97 0.95, -141.88 6.1, -151.35 6" stroke="#f08c00" stroke-width="2" fill="none"></path></g><g transform="translate(938.2177429500294 1392.3891620505037) rotate(0 -74.48936787694947 4.6466203164134185)"><path d="M-120.53 17.11 C-132.3 17.66, -136.65 10.37, -151.22 3.77 M-123.3 19.66 C-130.11 14.21, -142.09 12.1, -151.35 6" stroke="#f08c00" stroke-width="2" fill="none"></path></g></g><mask></mask><g transform="translate(851.2542675897372 1410.04678226222) rotate(0 14.3599853515625 12.5)"><text x="14.3599853515625" y="0" font-family="Virgil, Segoe UI Emoji" font-size="20px" fill="#f08c00" text-anchor="middle" style="white-space: pre;" direction="ltr" dominant-baseline="text-before-edge">link</text></g><g stroke-linecap="round" transform="translate(817.0751162839641 1374.3443955470052) rotate(0 52.778818428640534 42.98949761118001)"><path d="M32.56 3.18 C40.25 -0.32, 50.04 -2.37, 58.27 -1.35 C66.49 -0.33, 75.14 5.03, 81.9 9.29 C88.66 13.54, 94.61 17.93, 98.84 24.17 C103.07 30.4, 108.08 39.34, 107.28 46.7 C106.47 54.06, 99.66 62.69, 94.01 68.32 C88.35 73.95, 81.18 77.77, 73.34 80.49 C65.5 83.2, 55.69 84.77, 46.96 84.61 C38.24 84.46, 28.06 83.27, 21 79.54 C13.95 75.81, 8.33 69.21, 4.64 62.23 C0.95 55.24, -2.33 45.02, -1.15 37.63 C0.03 30.25, 4.63 24.06, 11.7 17.93 C18.78 11.8, 35.16 3.5, 41.28 0.84 C47.41 -1.82, 48.22 1.33, 48.45 1.96" stroke="#1e1e1e" stroke-width="2.5" fill="none" stroke-dasharray="1.5 8"></path></g><g stroke-linecap="round"><g transform="translate(865.5469029528757 1372.2834859012241) rotate(0 -122.22675899227568 -130.4805000736642)"><path d="M1.31 -2.79 C-34.85 -47.4, -62.34 -100.26, -99.69 -160.98 M-101.13 -165.21 C-135.84 -187.27, -179.21 -216.56, -242.68 -260.91" stroke="#1e1e1e" stroke-width="2.5" fill="none" stroke-dasharray="1.5 8"></path></g><g transform="translate(865.5469029528757 1372.2834859012241) rotate(0 -122.22675899227568 -130.4805000736642)"><path d="M-212.36 -256.07 C-224.19 -253.56, -230.17 -260.21, -241.84 -260.62" stroke="#1e1e1e" stroke-width="2.5" fill="none" stroke-dasharray="1.5 6"></path></g><g transform="translate(865.5469029528757 1372.2834859012241) rotate(0 -122.22675899227568 -130.4805000736642)"><path d="M-224.05 -239.2 C-232.68 -241.62, -235.14 -253.34, -241.84 -260.62" stroke="#1e1e1e" stroke-width="2.5" fill="none" stroke-dasharray="1.5 6"></path></g></g><mask></mask><g transform="translate(796.0594353433672 1149.4157970581705) rotate(0 61.18994903564453 12.5)"><text x="61.18994903564453" y="0" font-family="Virgil, Segoe UI Emoji" font-size="20px" fill="#f08c00" text-anchor="middle" style="white-space: pre;" direction="ltr" dominant-baseline="text-before-edge">HTTP POST</text></g><g transform="translate(818.2578014643301 1188.4720553453758) rotate(0 39.15995788574219 12.5)"><text x="39.15995788574219" y="0" font-family="Virgil, Segoe UI Emoji" font-size="20px" fill="#f08c00" text-anchor="middle" style="white-space: pre;" direction="ltr" dominant-baseline="text-before-edge">/session</text></g><g transform="translate(758.5590393106223 1476.0967580583178) rotate(0 102.724609375 11.5)"><text x="102.724609375" y="0" font-family="Helvetica, Segoe UI Emoji" font-size="20px" fill="#1e1e1e" text-anchor="middle" style="white-space: pre;" direction="ltr" dominant-baseline="text-before-edge">{sessionId:"4kj43-49n"}</text></g><g stroke-linecap="round"><g transform="translate(961.2849114979055 156.46486716189747) rotate(0 0 288.79675036305844)"><path d="M-1.44 0.72 C1.8 140.32, 2.23 279.5, 0.08 578.32" stroke="#1e1e1e" stroke-width="2.5" fill="none" stroke-dasharray="1.5 8"></path></g></g><mask></mask><g stroke-linecap="round"><g transform="translate(1504.7441082113733 156.540817259935) rotate(0 0 288.79675036305844)"><path d="M1.59 1.21 C-1.58 130.68, -3.36 264.21, 1.55 578.24" stroke="#1e1e1e" stroke-width="2.5" fill="none" stroke-dasharray="1.5 8"></path></g></g><mask></mask><g stroke-linecap="round"><g transform="translate(1232.3335826281705 156.07728939273738) rotate(0 0 288.79675036305844)"><path d="M-0.07 1.46 C1.77 229.52, 1.43 457.89, 1.01 578.71" stroke="#1e1e1e" stroke-width="2.5" fill="none" stroke-dasharray="1.5 8"></path></g></g><mask></mask><g transform="translate(929.2455469424152 100.82072834013434) rotate(0 29.453125 11.5)"><text x="29.453125" y="0" font-family="Helvetica, Segoe UI Emoji" font-size="20px" fill="#1e1e1e" text-anchor="middle" style="white-space: pre;" direction="ltr" dominant-baseline="text-before-edge">User 1</text></g><g transform="translate(1477.0905577815538 96.61473208647703) rotate(0 29.453125 11.5)"><text x="29.453125" y="0" font-family="Helvetica, Segoe UI Emoji" font-size="20px" fill="#1e1e1e" text-anchor="middle" style="white-space: pre;" direction="ltr" dominant-baseline="text-before-edge">User 2</text></g><g transform="translate(1219.0489761519211 95.82000222307124) rotate(0 13.33984375 11.5)"><text x="13.33984375" y="0" font-family="Helvetica, Segoe UI Emoji" font-size="20px" fill="#1e1e1e" text-anchor="middle" style="white-space: pre;" direction="ltr" dominant-baseline="text-before-edge">BE</text></g><g stroke-linecap="round"><g transform="translate(966.6796455706855 206.0146752599244) rotate(0 129.00216782775237 0.0033674994213015452)"><path d="M-2.86 -2.36 C70.16 -3.81, 144.53 1.05, 255.08 -2.18 M-1.1 -1.53 C59.15 -4.43, 121.21 -3.41, 258.27 1.15" stroke="#1e1e1e" stroke-width="4" fill="none"></path></g><g transform="translate(966.6796455706855 206.0146752599244) rotate(0 129.00216782775237 0.0033674994213015452)"><path d="M226.23 7.62 C234.52 5.51, 244.5 8.89, 254.63 -1.57 M228.42 8.66 C235.25 6.79, 244.31 5.87, 258.6 2.57" stroke="#1e1e1e" stroke-width="4" fill="none"></path></g><g transform="translate(966.6796455706855 206.0146752599244) rotate(0 129.00216782775237 0.0033674994213015452)"><path d="M226.84 -12.89 C234.96 -9.21, 244.76 -0.04, 254.63 -1.57 M229.03 -11.85 C235.68 -8.94, 244.6 -5.08, 258.6 2.57" stroke="#1e1e1e" stroke-width="4" fill="none"></path></g></g><mask></mask><g transform="translate(1070.3438850165016 167.48374688242802) rotate(0 25.0146484375 11.5)"><text x="25.0146484375" y="0" font-family="Helvetica, Segoe UI Emoji" font-size="20px" fill="#1e1e1e" text-anchor="middle" style="white-space: pre;" direction="ltr" dominant-baseline="text-before-edge">ready</text></g><g stroke-linecap="round"><g transform="translate(1494.6746903449307 378.1939094170225) rotate(0 -129.00216782780694 -0.0033674994213015452)"><path d="M3.03 0.12 C-66.86 -0.71, -135.05 -1.03, -257.88 1.38 M-0.61 0.22 C-95.07 -1.38, -190.3 -1.15, -258.1 0.44" stroke="#1e1e1e" stroke-width="4" fill="none"></path></g><g transform="translate(1494.6746903449307 378.1939094170225) rotate(0 -129.00216782780694 -0.0033674994213015452)"><path d="M-226.31 -10.11 C-235.21 -6.73, -242.09 -4.28, -257.94 2.17 M-230.83 -9.99 C-239.93 -5.69, -249.94 -1.45, -258.23 1" stroke="#1e1e1e" stroke-width="4" fill="none"></path></g><g transform="translate(1494.6746903449307 378.1939094170225) rotate(0 -129.00216782780694 -0.0033674994213015452)"><path d="M-225.99 10.41 C-235.15 8.32, -242.12 5.31, -257.94 2.17 M-230.51 10.53 C-239.69 7.23, -249.82 3.87, -258.23 1" stroke="#1e1e1e" stroke-width="4" fill="none"></path></g></g><mask></mask><g transform="translate(1342.0364895130892 339.65918075095624) rotate(0 25.0146484375 11.5)"><text x="25.0146484375" y="0" font-family="Helvetica, Segoe UI Emoji" font-size="20px" fill="#1e1e1e" text-anchor="middle" style="white-space: pre;" direction="ltr" dominant-baseline="text-before-edge">ready</text></g><g stroke-linecap="round"><g transform="translate(1240.958489622763 401.5741442894987) rotate(0 129.00216782775237 0.0033674994213015452)"><path d="M-1.6 -1.43 C56.52 3.32, 109.99 1.98, 259.88 -0.6 M-1.13 -1.28 C59.29 4.08, 116.89 3.57, 256.94 1.53" stroke="#1e1e1e" stroke-width="4" fill="none"></path></g><g transform="translate(1240.958489622763 401.5741442894987) rotate(0 129.00216782775237 0.0033674994213015452)"><path d="M226.89 10.36 C235.43 11.93, 238.35 7.96, 259.28 0.77 M227.47 10.55 C235.96 10.76, 240.77 7.7, 255.63 3.42" stroke="#1e1e1e" stroke-width="4" fill="none"></path></g><g transform="translate(1240.958489622763 401.5741442894987) rotate(0 129.00216782775237 0.0033674994213015452)"><path d="M226.63 -10.16 C235.53 -4.13, 238.5 -3.64, 259.28 0.77 M227.22 -9.97 C235.47 -5.07, 240.34 -3.45, 255.63 3.42" stroke="#1e1e1e" stroke-width="4" fill="none"></path></g></g><mask></mask><g stroke-linecap="round"><g transform="translate(1226.2004365682328 404.5853440105848) rotate(0 -129.00216782775237 0.0033674994213015452)"><path d="M-1.49 2.98 C-99.47 2.24, -194.67 3.76, -260.2 2.38 M-1.3 -0.04 C-62.54 -2.47, -127.22 -1.69, -258.82 -0.09" stroke="#1e1e1e" stroke-width="4" fill="none"></path></g><g transform="translate(1226.2004365682328 404.5853440105848) rotate(0 -129.00216782775237 0.0033674994213015452)"><path d="M-232.6 -6.96 C-242.72 -5.6, -249.43 0.32, -261.56 2.87 M-232.37 -10.72 C-235.55 -8.4, -243.21 -4.8, -259.84 -0.21" stroke="#1e1e1e" stroke-width="4" fill="none"></path></g><g transform="translate(1226.2004365682328 404.5853440105848) rotate(0 -129.00216782775237 0.0033674994213015452)"><path d="M-232.37 13.56 C-242.69 7.09, -249.5 5.19, -261.56 2.87 M-232.14 9.8 C-235.76 7.02, -243.48 5.52, -259.84 -0.21" stroke="#1e1e1e" stroke-width="4" fill="none"></path></g></g><mask></mask><g transform="translate(1011.1879418404232 215.6019566355485) rotate(0 44.4677734375 34.5)"><text x="44.4677734375" y="0" font-family="Helvetica, Segoe UI Emoji" font-size="20px" fill="#1e1e1e" text-anchor="middle" style="white-space: pre;" direction="ltr" dominant-baseline="text-before-edge">session id</text><text x="44.4677734375" y="23" font-family="Helvetica, Segoe UI Emoji" font-size="20px" fill="#1e1e1e" text-anchor="middle" style="white-space: pre;" direction="ltr" dominant-baseline="text-before-edge">user id</text><text x="44.4677734375" y="46" font-family="Helvetica, Segoe UI Emoji" font-size="20px" fill="#1e1e1e" text-anchor="middle" style="white-space: pre;" direction="ltr" dominant-baseline="text-before-edge">ready</text></g><g transform="translate(1057.6247694093254 433.89002516416167) rotate(0 19.4482421875 11.5)"><text x="19.4482421875" y="0" font-family="Helvetica, Segoe UI Emoji" font-size="20px" fill="#1e1e1e" text-anchor="middle" style="white-space: pre;" direction="ltr" dominant-baseline="text-before-edge">start</text></g><g transform="translate(1739.4075171079817 178.93071928997824) rotate(0 85.6005859375 34.5)"><text x="0" y="0" font-family="Helvetica, Segoe UI Emoji" font-size="20px" fill="#1e1e1e" text-anchor="start" style="white-space: pre;" direction="ltr" dominant-baseline="text-before-edge">progress in percent</text><text x="0" y="23" font-family="Helvetica, Segoe UI Emoji" font-size="20px" fill="#1e1e1e" text-anchor="start" style="white-space: pre;" direction="ltr" dominant-baseline="text-before-edge">session id</text><text x="0" y="46" font-family="Helvetica, Segoe UI Emoji" font-size="20px" fill="#1e1e1e" text-anchor="start" style="white-space: pre;" direction="ltr" dominant-baseline="text-before-edge">user id</text></g><g transform="translate(1982.4399503367817 637.816529489292) rotate(0 85.6005859375 11.5)"><text x="0" y="0" font-family="Helvetica, Segoe UI Emoji" font-size="20px" fill="#1e1e1e" text-anchor="start" style="white-space: pre;" direction="ltr" dominant-baseline="text-before-edge">progress in percent</text></g><g transform="translate(1799.4883329713311 1384.4222163539393) rotate(0 56.419944763183594 12.5)"><text x="56.419944763183594" y="0" font-family="Virgil, Segoe UI Emoji" font-size="20px" fill="#1e1e1e" text-anchor="middle" style="white-space: pre;" direction="ltr" dominant-baseline="text-before-edge">finish: place</text></g></svg>